<?xml version="1.0" standalone="no"?>
<!DOCTYPE svg PUBLIC "-//W3C//DTD SVG 20010904//EN"
 "http://www.w3.org/TR/2001/REC-SVG-20010904/DTD/svg10.dtd">
<svg version="1.0" xmlns="http://www.w3.org/2000/svg"
 width="512.000000pt" height="512.000000pt" viewBox="0 0 512.000000 512.000000"
 preserveAspectRatio="xMidYMid meet">
<metadata>
Created by potrace 1.11, written by Peter Selinger 2001-2013
</metadata>
<g transform="translate(0.000000,512.000000) scale(0.100000,-0.100000)"
fill="#000000" stroke="none">
<path d="M2265 5106 c-405 -77 -738 -264 -1013 -570 -180 -200 -321 -465 -387
-722 -56 -223 -55 -180 -55 -1838 l0 -1528 21 -38 c22 -40 82 -80 118 -80 20
0 21 -5 21 -101 0 -119 18 -163 80 -198 35 -19 53 -21 235 -21 219 0 247 6
288 64 19 27 22 46 25 144 l4 112 964 0 964 0 0 -93 c0 -109 23 -167 79 -204
33 -22 43 -23 241 -23 198 0 208 1 240 22 65 45 75 68 78 188 l4 108 34 6 c42
8 93 50 110 93 12 27 14 287 14 1528 0 992 -4 1528 -11 1593 -24 223 -78 404
-179 607 -91 182 -177 302 -325 451 -239 241 -488 385 -815 472 l-135 35 -265
3 c-189 2 -285 -1 -335 -10z m-56 -253 c11 -42 20 -78 18 -78 -1 -1 -42 -14
-92 -29 -370 -113 -693 -394 -865 -751 -97 -203 -129 -343 -137 -597 l-6 -188
-85 0 -85 0 6 163 c12 312 69 532 200 769 198 362 546 646 937 764 41 12 78
23 81 23 4 1 16 -34 28 -76z m876 37 c228 -79 414 -192 584 -355 335 -322 501
-710 501 -1171 l0 -154 -79 0 -78 0 -6 173 c-9 262 -47 420 -153 634 -63 128
-91 157 -144 150 -34 -5 -37 -2 -92 68 -54 69 -56 75 -46 103 17 44 1 71 -79
137 -143 118 -321 216 -493 271 -47 14 -87 28 -89 30 -3 3 20 97 34 142 6 17
10 16 140 -28z m-255 -590 c272 -80 491 -268 611 -525 63 -134 80 -216 86
-402 l6 -163 -82 0 -81 0 0 109 c0 60 -7 146 -16 192 -62 329 -308 578 -635
645 -109 22 -274 15 -374 -16 -212 -66 -385 -209 -484 -400 -67 -129 -83 -195
-88 -372 l-6 -158 -83 0 -84 0 6 138 c3 75 12 173 20 217 70 365 366 666 739
749 106 23 364 16 465 -14z m-105 -306 c226 -53 416 -246 470 -477 9 -36 15
-112 15 -184 l0 -123 -140 0 c-132 0 -140 1 -131 18 21 39 32 140 22 203 -44
268 -325 414 -567 294 -85 -42 -144 -102 -185 -189 -45 -97 -49 -187 -13 -308
5 -17 -6 -18 -137 -18 l-142 0 6 130 c4 71 14 158 23 192 43 168 168 327 320
405 153 79 292 97 459 57z m-1275 -1024 l0 -80 -245 0 -245 0 0 80 0 80 245 0
245 0 0 -80z m2720 0 l0 -80 -240 0 -240 0 0 80 0 80 240 0 240 0 0 -80z
m-3040 -295 c0 -46 4 -60 25 -80 13 -14 31 -25 40 -25 12 0 15 -14 15 -80 0
-77 -1 -80 -25 -86 -57 -14 -55 4 -55 -661 l0 -613 -85 0 -85 0 0 800 0 800
85 0 85 0 0 -55z m3040 -750 l0 -805 -80 0 -80 0 0 805 0 805 80 0 80 0 0
-805z m-960 240 c0 -264 4 -286 52 -307 27 -13 28 -15 28 -91 0 -73 -2 -78
-24 -87 -37 -14 -56 -49 -56 -102 l0 -48 -80 0 -80 0 0 331 0 331 -30 29 -29
30 -431 -3 -432 -3 -19 -24 c-18 -22 -19 -43 -19 -357 l0 -334 -80 0 -80 0 0
440 0 440 640 0 640 0 0 -245z m-1106 -833 c10 -63 64 -158 124 -219 147 -148
369 -185 555 -91 112 56 212 175 244 291 l16 57 83 0 82 0 -13 -58 c-33 -140
-88 -234 -195 -335 -76 -72 -176 -127 -280 -153 -96 -24 -272 -15 -362 18
-219 82 -381 270 -422 491 l-7 37 84 0 84 0 7 -38z m-654 -601 l0 -239 -152
-7 c-84 -3 -193 -5 -243 -3 l-90 3 -3 243 -2 242 245 0 245 0 0 -239z m2720 1
l0 -239 -127 -6 c-71 -4 -179 -7 -240 -7 l-113 0 0 245 0 245 240 0 240 0 0
-238z"/>
</g>
</svg>
